<svg id="图层_1" data-name="图层 1" xmlns="http://www.w3.org/2000/svg" xmlns:xlink="http://www.w3.org/1999/xlink" viewBox="0 0 950.26 950"><defs><style>.cls-1{fill:url(#未命名的渐变_46);}.cls-2{fill:url(#未命名的渐变_34);}.cls-3{fill:#faf3e9;}.cls-4{fill:url(#未命名的渐变_46-2);}.cls-5{fill:url(#未命名的渐变_46-3);}</style><linearGradient id="未命名的渐变_46" x1="482.75" y1="34.96" x2="467.81" y2="897.56" gradientUnits="userSpaceOnUse"><stop offset="0" stop-color="#05398f"/><stop offset="1" stop-color="#142650"/></linearGradient><linearGradient id="未命名的渐变_34" x1="574.38" y1="155.97" x2="317.92" y2="787.26" gradientUnits="userSpaceOnUse"><stop offset="0" stop-color="#2bee8f"/><stop offset="0.36" stop-color="#199ffd"/><stop offset="0.67" stop-color="#479ff3"/><stop offset="1" stop-color="#965ff1"/></linearGradient><linearGradient id="未命名的渐变_46-2" x1="539.92" y1="35.95" x2="524.98" y2="898.55" xlink:href="#未命名的渐变_46"/><linearGradient id="未命名的渐变_46-3" x1="464.23" y1="34.64" x2="449.29" y2="897.24" xlink:href="#未命名的渐变_46"/></defs><g id="图层_7" data-name="图层 7"><path class="cls-1" d="M950.26,475C950.26,212.76,737.49,0,475,0,212.76,0,0,212.76,0,475A473.2,473.2,0,0,0,174.57,842.85l.36.29c58.11-52.71,137.65-75.79,204.63-89.29l-9.29-15.48s-40.17-3.57-73.72-1l-3.74.32C537.87,636,599.27,595.53,634.35,475.05c9-43.54,34.5-71.13,63.35-90.46,16.1,82.87,3.25,169.54-40.38,240.52h0q-4.09,6.64-8.55,13.1c-.58.86-1.19,1.72-1.79,2.58h0q-5,7.07-10.42,13.91l-2.19,2.71c-38.3,46-72.52,69.55-105.94,80.66l-.53.28,203.93,136.2c.35-.24.72-.46,1.07-.7C863.61,789.53,950.26,642.39,950.26,475Z"/></g><g id="图层_6" data-name="图层 6"><path class="cls-2" d="M667.36,149c-2.58-.26-8-5.67-10.58-7.22a121.17,121.17,0,0,0-11.6-6.7,141.89,141.89,0,0,0-22.71-9,156,156,0,0,0-43.84-6.2C513.1,120.11,442.18,165,426.44,231c-4.39,18.58-3.62,37.66-6.72,56.24a245.1,245.1,0,0,1-15.21,54.17c-21.67,53.4-59.33,98.28-93.12,143.94-41.53,56.49-77.13,116.07-99.32,182.89-21.92,66.28-60.87,125.36-114,170.24L57.3,871.79c61.3,27.11,147.17-75.95,235.51-134.14C537.87,636,599.27,595.53,634.35,475.05c9-43.54,34.5-71.13,63.35-90.46q-2.36-12.24-5.58-24.32c-20.64-77.9-12.9-116.6,23.73-146.52,18.58-15,44.64-27.86,78.43-42C768,151.58,712,152.36,667.36,149Zm-87.55,71.6a20.6,20.6,0,1,1,20.6-20.6A20.61,20.61,0,0,1,579.81,220.6Z"/></g><g id="图层_5" data-name="图层 5"><path class="cls-3" d="M239.85,641C297.12,617.19,344.51,580.69,384,533c-2.11,3.55-4.14,7.16-6.36,10.64-2.35,3.7-4.8,7.34-7.39,10.88s-5.3,7-8.1,10.35-5.74,6.55-9.5,10.82c3,.19,4.9.46,6.82.42,22.38-.42,40.69-9.43,55.22-26.31A165.64,165.64,0,0,0,438,515.57c1.06-2.12,2.24-4.18,3.36-6.27l1.21.59c-3,6.59-6,13.18-9,19.76-2.19,4.74-4.24,9.56-6.75,14.13a52.72,52.72,0,0,1-5.89,8c-4.23,5.07-8.58,10-12.89,15,.16.43.31.85.46,1.28a37.07,37.07,0,0,0,5.17-.07c26-4.12,46.5-17.55,61.93-38.33,7.59-10.21,13.48-21.71,19.83-32.81,4.22-7.39,7.87-15.1,12.33-22.37-9.59,27.08-19.86,53.78-41.29,74.42l.76.89a17.46,17.46,0,0,0,3.25-.27C497.89,542,520,526.34,536.65,503.6c21.57-29.46,32-62.91,32.21-99.47,0-5.75-.9-11.5-1-17.4.35.93.73,1.85,1,2.8,9,28.12,5,55.38-5,82.4-9.64,26-23.19,49.14-45.45,66.43-21.06,16.36-44.87,27.28-70.06,35.51-31.7,10.37-64.31,14.28-97.52,13.85a24.32,24.32,0,0,0-16.23,5.69c-28,21.81-59.23,37.41-93.24,47.49A6.8,6.8,0,0,1,239.85,641Z"/></g><g id="图层_4" data-name="图层 4"><path class="cls-4" d="M505.16,744a.16.16,0,0,0-.09,0c-6.44.83-20.51,2.51-30.62,2.82l-1,0-1.27,0,.2,0,109.63,54.17-73.52-57.54S507.26,743.71,505.16,744Z"/></g><g id="图层_3" data-name="图层 3"><path class="cls-5" d="M197.15,860.08C275.2,916.89,371.27,950,475,950a475,475,0,0,0,227.16-57.64C538.44,790.71,357.06,743.21,197.15,860.08Z"/></g><g id="图层_2" data-name="图层 2"><path class="cls-3" d="M528.41,738.09c33.42-11.11,67.64-34.63,105.94-80.66l2.19-2.71Q642,647.88,647,640.81h0c.6-.86,1.21-1.72,1.79-2.58q4.46-6.45,8.55-13.1h0c43.63-71,56.48-157.65,40.38-240.52-28.85,19.33-54.34,46.92-63.35,90.46-35.08,120.48-96.48,161-341.54,262.6l3.74-.32c33.55-2.53,73.72,1,73.72,1l9.29,15.48c-67,13.5-146.52,36.58-204.63,89.29,7.06,5.79,14.12,11.33,21.43,16.37l.79.57c159.91-116.87,341.29-69.37,505,32.28l1.5-.8q14.43-7.78,28.15-17L527.88,738.37Zm53.64,63L472.42,746.89l-.2,0,1.27,0,1,0c10.11-.31,24.18-2,30.62-2.82a.16.16,0,0,1,.09,0c2.1-.26,3.37-.45,3.37-.45Z"/></g></svg>